<svg viewBox="63 104 1437 1053" style="font-family: Arial, &quot;Microsoft Yahei&quot;,  &quot;Heiti SC&quot;; background: #fbfbfb" class="loading-target" contenteditable="true" height="1053" width="1437" version="1.1" xmlns:xlink="http://www.w3.org/1999/xlink" xmlns="http://www.w3.org/2000/svg" id="kity_svg_6"><defs id="kity_defs_7"><linearGradient y2="1" x2="0" y1="0" x1="0" id="kity_linearGradient_12"><stop stop-color="rgb(255, 255, 255)" offset="0" id="kity_stop_13"></stop><stop stop-color="rgb(204, 204, 204)" offset="1" id="kity_stop_14"></stop></linearGradient><marker markerUnits="userSpaceOnUse" markerHeight="7" markerWidth="7" viewBox="-7 -7 14 14" refY="0" refX="6" orient="auto" id="kity_marker_2"><path d="M6,0A6,6,0,1,1,-6,0A6,6,0,1,1,6,0" stroke="none" fill="rgb(115, 161, 191)" id="kity_path_3"></path></marker></defs><g transform="translate(0.5, 0.5)" id="kity_g_8"><g transform="translate( 805 706 ) matrix( 1 0 0 1 0 0 )" text-rendering="optimize-speed" id="minder_1"><g id="minder_connect_group_1"><path transform="translate( 0 0 )" d="M42.5 0.5A184.5,105.5,0,0,1,227 -105" marker-end="url(#kity_marker_2)" stroke-width="1" stroke="rgb(115, 161, 191)" fill="none" id="kity_path_34"></path><path transform="translate( 0 0 )" d="M342 -105C357,-105,357,-162,372 -162L453 -162" stroke-width="1" stroke="rgb(115, 161, 191)" fill="none" id="kity_path_36"></path><path transform="translate( 0 0 )" d="M453 -162C468,-162,468,-201,483 -201L564 -201" stroke-width="1" stroke="rgb(115, 161, 191)" fill="none" id="kity_path_38"></path><path transform="translate( 0 0 )" d="M453 -162C468,-162,468,-123,483 -123L564 -123" stroke-width="1" stroke="rgb(115, 161, 191)" fill="none" id="kity_path_40"></path><path transform="translate( 0 0 )" d="M564 -123C579,-123,579,-149,594 -149L675 -149" stroke-width="1" stroke="rgb(115, 161, 191)" fill="none" id="kity_path_42"></path><path transform="translate( 0 0 )" d="M564 -123C579,-123,579,-97,594 -97L675 -97" stroke-width="1" stroke="rgb(115, 161, 191)" fill="none" id="kity_path_44"></path><path transform="translate( 0 0 )" d="M342 -105C357,-105,357,-19,372 -19L453 -19" stroke-width="1" stroke="rgb(115, 161, 191)" fill="none" id="kity_path_46"></path><path transform="translate( 0 0 )" d="M453 -19C468,-19,468,-45,483 -45L564 -45" stroke-width="1" stroke="rgb(115, 161, 191)" fill="none" id="kity_path_48"></path><path transform="translate( 0 0 )" d="M453 -19C468,-19,468,7,483 7L564 7" stroke-width="1" stroke="rgb(115, 161, 191)" fill="none" id="kity_path_50"></path><path transform="translate( 0 0 )" d="M42.5 0.5A184.5,105.5,0,0,0,227 106" marker-end="url(#kity_marker_2)" stroke-width="1" stroke="rgb(115, 161, 191)" fill="none" id="kity_path_52"></path><path transform="translate( 0 0 )" d="M307 106C322,106,322,68,337 68L412 68" stroke-width="1" stroke="rgb(115, 161, 191)" fill="none" id="kity_path_54"></path><path transform="translate( 0 0 )" d="M307 106C322,106,322,120,337 120L454 120" stroke-width="1" stroke="rgb(115, 161, 191)" fill="none" id="kity_path_56"></path><path transform="translate( 0 0 )" d="M307 106C322,106,322,172,337 172L442 172" stroke-width="1" stroke="rgb(115, 161, 191)" fill="none" id="kity_path_58"></path><path transform="translate( 0 0 )" d="M42.5 0.5A184.5,0.5,0,0,1,-142 1" marker-end="url(#kity_marker_2)" stroke-width="1" stroke="rgb(115, 161, 191)" fill="none" id="kity_path_60"></path><path transform="translate( 0 0 )" d="M-236 1C-251,1,-251,-258,-266 -258L-347 -258" stroke-width="1" stroke="rgb(115, 161, 191)" fill="none" id="kity_path_62"></path><path transform="translate( 0 0 )" d="M-347 -258C-362,-258,-362,-505,-377 -505L-458 -505" stroke-width="1" stroke="rgb(115, 161, 191)" fill="none" id="kity_path_64"></path><path transform="translate( 0 0 )" d="M-458 -505C-473,-505,-473,-557,-488 -557L-581 -557" stroke-width="1" stroke="rgb(115, 161, 191)" fill="none" id="kity_path_66"></path><path transform="translate( 0 0 )" d="M-347 -258C-362,-258,-362,-11,-377 -11L-458 -11" stroke-width="1" stroke="rgb(115, 161, 191)" fill="none" id="kity_path_68"></path><path transform="translate( 0 0 )" d="M-458 -11C-473,-11,-473,-89,-488 -89L-593 -89" stroke-width="1" stroke="rgb(115, 161, 191)" fill="none" id="kity_path_70"></path><path transform="translate( 0 0 )" d="M-458 -11C-473,-11,-473,-37,-488 -37L-581 -37" stroke-width="1" stroke="rgb(115, 161, 191)" fill="none" id="kity_path_72"></path><path transform="translate( 0 0 )" d="M-458 -11C-473,-11,-473,15,-488 15L-581 15" stroke-width="1" stroke="rgb(115, 161, 191)" fill="none" id="kity_path_74"></path><path transform="translate( 0 0 )" d="M-458 -11C-473,-11,-473,67,-488 67L-575 67" stroke-width="1" stroke="rgb(115, 161, 191)" fill="none" id="kity_path_76"></path><path transform="translate( 0 0 )" d="M-236 1C-251,1,-251,119,-266 119L-365 119" stroke-width="1" stroke="rgb(115, 161, 191)" fill="none" id="kity_path_78"></path><path transform="translate( 0 0 )" d="M-236 1C-251,1,-251,288,-266 288L-347 288" stroke-width="1" stroke="rgb(115, 161, 191)" fill="none" id="kity_path_80"></path><path transform="translate( 0 0 )" d="M-347 288C-362,288,-362,171,-377 171L-452 171" stroke-width="1" stroke="rgb(115, 161, 191)" fill="none" id="kity_path_82"></path><path transform="translate( 0 0 )" d="M-347 288C-362,288,-362,223,-377 223L-428 223" stroke-width="1" stroke="rgb(115, 161, 191)" fill="none" id="kity_path_84"></path><path transform="translate( 0 0 )" d="M-347 288C-362,288,-362,301,-377 301L-482 301" stroke-width="1" stroke="rgb(115, 161, 191)" fill="none" id="kity_path_86"></path><path transform="translate( 0 0 )" d="M-482 301C-497,301,-497,275,-512 275L-593 275" stroke-width="1" stroke="rgb(115, 161, 191)" fill="none" id="kity_path_88"></path><path transform="translate( 0 0 )" d="M-482 301C-497,301,-497,327,-512 327L-593 327" stroke-width="1" stroke="rgb(115, 161, 191)" fill="none" id="kity_path_90"></path><path transform="translate( 0 0 )" d="M-347 288C-362,288,-362,405,-377 405L-530 405" stroke-width="1" stroke="rgb(115, 161, 191)" fill="none" id="kity_path_92"></path><path transform="translate( 0 0 )" d="M-530 405C-545,405,-545,379,-560 379L-665 379" stroke-width="1" stroke="rgb(115, 161, 191)" fill="none" id="kity_path_94"></path><path transform="translate( 0 0 )" d="M-530 405C-545,405,-545,431,-560 431L-641 431" stroke-width="1" stroke="rgb(115, 161, 191)" fill="none" id="kity_path_96"></path><path transform="translate( 0 0 )" d="M-458 -505C-473,-505,-473,-505,-488 -505L-575 -505" stroke-width="1" stroke="rgb(115, 161, 191)" fill="none" id="kity_path_425"></path><path transform="translate( 0 0 )" d="M-347 -258C-362,-258,-362,-271,-377 -271L-458 -271" stroke-width="1" stroke="rgb(115, 161, 191)" fill="none" id="kity_path_535"></path><path transform="translate( 0 0 )" d="M-458 -271C-473,-271,-473,-375,-488 -375L-557 -375" stroke-width="1" stroke="rgb(115, 161, 191)" fill="none" id="kity_path_718"></path><path transform="translate( 0 0 )" d="M-458 -271C-473,-271,-473,-271,-488 -271L-569 -271" stroke-width="1" stroke="rgb(115, 161, 191)" fill="none" id="kity_path_834"></path><path transform="translate( 0 0 )" d="M-458 -271C-473,-271,-473,-167,-488 -167L-569 -167" stroke-width="1" stroke="rgb(115, 161, 191)" fill="none" id="kity_path_1064"></path><path transform="translate( 0 0 )" d="M-557 -375C-572,-375,-572,-401,-587 -401L-680 -401" stroke-width="1" stroke="rgb(115, 161, 191)" fill="none" id="kity_path_1186"></path><path transform="translate( 0 0 )" d="M-557 -375C-572,-375,-572,-349,-587 -349L-716 -349" stroke-width="1" stroke="rgb(115, 161, 191)" fill="none" id="kity_path_1311"></path><path transform="translate( 0 0 )" d="M-569 -271C-584,-271,-584,-297,-599 -297L-680 -297" stroke-width="1" stroke="rgb(115, 161, 191)" fill="none" id="kity_path_1439"></path><path transform="translate( 0 0 )" d="M-569 -271C-584,-271,-584,-245,-599 -245L-722 -245" stroke-width="1" stroke="rgb(115, 161, 191)" fill="none" id="kity_path_1570"></path><path transform="translate( 0 0 )" d="M-569 -167C-584,-167,-584,-193,-599 -193L-674 -193" stroke-width="1" stroke="rgb(115, 161, 191)" fill="none" id="kity_path_1704"></path><path transform="translate( 0 0 )" d="M-569 -167C-584,-167,-584,-141,-599 -141L-668 -141" stroke-width="1" stroke="rgb(115, 161, 191)" fill="none" id="kity_path_1841"></path><path transform="translate( 0 0 )" d="M-458 -505C-473,-505,-473,-453,-488 -453L-557 -453" stroke-width="1" stroke="rgb(115, 161, 191)" fill="none" id="kity_path_2113"></path></g><g transform="matrix( 1 0 0 1 0 0 )" id="minder_node_1"><path d="M-19,-20h123a5,5,0,0,1,5,5v31a5,5,0,0,1,-5,5h-123a5,5,0,0,1,-5,-5v-31a5,5,0,0,1,5,-5z" stroke="rgb(115, 161, 191)" fill="rgb(115, 161, 191)" id="node_outline_1"></path><g fill="white" transform="translate( 0 -2.4 )" id="node_text_1"><text y="-8" font-size="16" dy="0" dominant-baseline="text-before-edge" text-rendering="inherit" id="kity_text_23">Minions</text></g><g transform="translate( 69 0 )" style="cursor: pointer;" id="kity_g_161"><path d="M2.5,-8.5h12a2,2,0,0,1,2,2v13a2,2,0,0,1,-2,2h-12a2,2,0,0,1,-2,-2v-13a2,2,0,0,1,2,-2z" stroke="none" fill="transparent" id="kity_path_162"></path><path transform="translate( 2.5 -6.5 )" d="M9,9H3V8h6L9,9L9,9z M9,7H3V6h6V7z M9,5H3V4h6V5z M8.5,11H2V2h8v7.5 M9,12l2-2V1H1v11" stroke="none" fill="white" id="kity_path_163"></path></g></g><g id="kity_g_15"><path d="M0,0h0v0h0z" stroke="none" fill="none" id="kity_path_16"></path></g><g id="kity_g_17"><path d="M0,0h0v0h0z" stroke="none" fill="none" id="kity_path_18"></path><path stroke="none" fill="none" id="kity_path_19"></path></g><g transform="matrix( 1 0 0 1 249 -105 )" id="minder_node_4"><g transform="translate( -27 0 )" style="cursor: pointer;" id="node_expander_9"><path d="M6,0A6,6,0,1,1,-6,0A6,6,0,1,1,6,0" stroke="gray" fill="white" id="kity_path_221"></path><path d="M-4.5,0L4.5,0" stroke="gray" fill="none" id="kity_path_222"></path></g><path stroke-width="1" d="M-17,-13h107a3,3,0,0,1,3,3v20a3,3,0,0,1,-3,3h-107a3,3,0,0,1,-3,-3v-20a3,3,0,0,1,3,-3z" stroke="rgb(115, 161, 191)" fill="rgb(238, 243, 246)" id="node_outline_10"></path><g fill="black" transform="translate( 0 -2.1 )" id="node_text_10"><text y="-7" font-size="14" dy="0" dominant-baseline="text-before-edge" text-rendering="inherit" id="kity_text_114">webmanager</text></g></g><g transform="matrix( 1 0 0 1 392 -176 )" id="minder_node_5"><g transform="translate( -16 0 )" style="cursor: pointer;" id="node_expander_5"><path d="M6,0A6,6,0,1,1,-6,0A6,6,0,1,1,6,0" stroke="gray" fill="white" id="kity_path_209"></path><path d="M-4.5,0L4.5,0" stroke="gray" fill="none" id="kity_path_210"></path></g><path d="M-5,-11h61a5,5,0,0,1,5,5v12a5,5,0,0,1,-5,5h-61a5,5,0,0,1,-5,-5v-12a5,5,0,0,1,5,-5z" stroke="none" fill="transparent" id="node_outline_6"></path><g fill="black" transform="translate( 0 -1.7999999999999998 )" id="node_text_6"><text y="-6" font-size="12" dy="0" dominant-baseline="text-before-edge" text-rendering="inherit" id="kity_text_106">数据展现</text></g></g><g transform="matrix( 1 0 0 1 503 -215 )" id="minder_node_6"><g transform="translate( -16 0 )" display="none" style="cursor: pointer;" id="node_expander_1"><path d="M6,0A6,6,0,1,1,-6,0A6,6,0,1,1,6,0" stroke="gray" fill="white" id="kity_path_197"></path><path stroke="gray" fill="none" id="kity_path_198"></path></g><path d="M-5,-11h61a5,5,0,0,1,5,5v12a5,5,0,0,1,-5,5h-61a5,5,0,0,1,-5,-5v-12a5,5,0,0,1,5,-5z" stroke="none" fill="transparent" id="node_outline_2"></path><g fill="black" transform="translate( 0 -1.7999999999999998 )" id="node_text_2"><text y="-6" font-size="12" dy="0" dominant-baseline="text-before-edge" text-rendering="inherit" id="kity_text_98">代理数据</text></g></g><g transform="matrix( 1 0 0 1 503 -137 )" id="minder_node_7"><g transform="translate( -16 0 )" style="cursor: pointer;" id="node_expander_4"><path d="M6,0A6,6,0,1,1,-6,0A6,6,0,1,1,6,0" stroke="gray" fill="white" id="kity_path_206"></path><path d="M-4.5,0L4.5,0" stroke="gray" fill="none" id="kity_path_207"></path></g><path d="M-5,-11h61a5,5,0,0,1,5,5v12a5,5,0,0,1,-5,5h-61a5,5,0,0,1,-5,-5v-12a5,5,0,0,1,5,-5z" stroke="none" fill="transparent" id="node_outline_5"></path><g fill="black" transform="translate( 0 -1.7999999999999998 )" id="node_text_5"><text y="-6" font-size="12" dy="0" dominant-baseline="text-before-edge" text-rendering="inherit" id="kity_text_104">任务信息</text></g></g><g transform="matrix( 1 0 0 1 614 -163 )" id="minder_node_8"><g transform="translate( -16 0 )" display="none" style="cursor: pointer;" id="node_expander_2"><path d="M6,0A6,6,0,1,1,-6,0A6,6,0,1,1,6,0" stroke="gray" fill="white" id="kity_path_200"></path><path stroke="gray" fill="none" id="kity_path_201"></path></g><path d="M-5,-11h61a5,5,0,0,1,5,5v12a5,5,0,0,1,-5,5h-61a5,5,0,0,1,-5,-5v-12a5,5,0,0,1,5,-5z" stroke="none" fill="transparent" id="node_outline_3"></path><g fill="black" transform="translate( 0 -1.7999999999999998 )" id="node_text_3"><text y="-6" font-size="12" dy="0" dominant-baseline="text-before-edge" text-rendering="inherit" id="kity_text_100">完成情况</text></g></g><g transform="matrix( 1 0 0 1 614 -111 )" id="minder_node_9"><g transform="translate( -16 0 )" display="none" style="cursor: pointer;" id="node_expander_3"><path d="M6,0A6,6,0,1,1,-6,0A6,6,0,1,1,6,0" stroke="gray" fill="white" id="kity_path_203"></path><path stroke="gray" fill="none" id="kity_path_204"></path></g><path d="M-5,-11h61a5,5,0,0,1,5,5v12a5,5,0,0,1,-5,5h-61a5,5,0,0,1,-5,-5v-12a5,5,0,0,1,5,-5z" stroke="none" fill="transparent" id="node_outline_4"></path><g fill="black" transform="translate( 0 -1.7999999999999998 )" id="node_text_4"><text y="-6" font-size="12" dy="0" dominant-baseline="text-before-edge" text-rendering="inherit" id="kity_text_102">漏洞信息</text></g></g><g transform="matrix( 1 0 0 1 392 -33 )" id="minder_node_10"><g transform="translate( -16 0 )" style="cursor: pointer;" id="node_expander_8"><path d="M6,0A6,6,0,1,1,-6,0A6,6,0,1,1,6,0" stroke="gray" fill="white" id="kity_path_218"></path><path d="M-4.5,0L4.5,0" stroke="gray" fill="none" id="kity_path_219"></path></g><path d="M-5,-11h61a5,5,0,0,1,5,5v12a5,5,0,0,1,-5,5h-61a5,5,0,0,1,-5,-5v-12a5,5,0,0,1,5,-5z" stroke="none" fill="transparent" id="node_outline_9"></path><g fill="black" transform="translate( 0 -1.7999999999999998 )" id="node_text_9"><text y="-6" font-size="12" dy="0" dominant-baseline="text-before-edge" text-rendering="inherit" id="kity_text_112">任务调度</text></g></g><g transform="matrix( 1 0 0 1 503 -59 )" id="minder_node_11"><g transform="translate( -16 0 )" display="none" style="cursor: pointer;" id="node_expander_6"><path d="M6,0A6,6,0,1,1,-6,0A6,6,0,1,1,6,0" stroke="gray" fill="white" id="kity_path_212"></path><path stroke="gray" fill="none" id="kity_path_213"></path></g><path d="M-5,-11h61a5,5,0,0,1,5,5v12a5,5,0,0,1,-5,5h-61a5,5,0,0,1,-5,-5v-12a5,5,0,0,1,5,-5z" stroke="none" fill="transparent" id="node_outline_7"></path><g fill="black" transform="translate( 0 -1.7999999999999998 )" id="node_text_7"><text y="-6" font-size="12" dy="0" dominant-baseline="text-before-edge" text-rendering="inherit" id="kity_text_108">信息搜集</text></g></g><g transform="matrix( 1 0 0 1 503 -7 )" id="minder_node_12"><g transform="translate( -16 0 )" display="none" style="cursor: pointer;" id="node_expander_7"><path d="M6,0A6,6,0,1,1,-6,0A6,6,0,1,1,6,0" stroke="gray" fill="white" id="kity_path_215"></path><path stroke="gray" fill="none" id="kity_path_216"></path></g><path d="M-5,-11h61a5,5,0,0,1,5,5v12a5,5,0,0,1,-5,5h-61a5,5,0,0,1,-5,-5v-12a5,5,0,0,1,5,-5z" stroke="none" fill="transparent" id="node_outline_8"></path><g fill="black" transform="translate( 0 -1.7999999999999998 )" id="node_text_8"><text y="-6" font-size="12" dy="0" dominant-baseline="text-before-edge" text-rendering="inherit" id="kity_text_110">漏洞验证</text></g></g><g transform="matrix( 1 0 0 1 249 106 )" id="minder_node_13"><g transform="translate( -27 0 )" style="cursor: pointer;" id="node_expander_13"><path d="M6,0A6,6,0,1,1,-6,0A6,6,0,1,1,6,0" stroke="gray" fill="white" id="kity_path_233"></path><path d="M-4.5,0L4.5,0" stroke="gray" fill="none" id="kity_path_234"></path></g><path stroke-width="1" d="M-17,-13h72a3,3,0,0,1,3,3v20a3,3,0,0,1,-3,3h-72a3,3,0,0,1,-3,-3v-20a3,3,0,0,1,3,-3z" stroke="rgb(115, 161, 191)" fill="rgb(238, 243, 246)" id="node_outline_14"></path><g fill="black" transform="translate( 0 -2.1 )" id="node_text_14"><text y="-7" font-size="14" dy="0" dominant-baseline="text-before-edge" text-rendering="inherit" id="kity_text_122">proxy</text></g></g><g transform="matrix( 1 0 0 1 357 54 )" id="minder_node_14"><g transform="translate( -16 0 )" display="none" style="cursor: pointer;" id="node_expander_10"><path d="M6,0A6,6,0,1,1,-6,0A6,6,0,1,1,6,0" stroke="gray" fill="white" id="kity_path_224"></path><path stroke="gray" fill="none" id="kity_path_225"></path></g><path d="M-5,-11h55a5,5,0,0,1,5,5v12a5,5,0,0,1,-5,5h-55a5,5,0,0,1,-5,-5v-12a5,5,0,0,1,5,-5z" stroke="none" fill="transparent" id="node_outline_11"></path><g fill="black" transform="translate( 0 -1.7999999999999998 )" id="node_text_11"><text y="-6" font-size="12" dy="0" dominant-baseline="text-before-edge" text-rendering="inherit" id="kity_text_116">web代理</text></g></g><g transform="matrix( 1 0 0 1 357 106 )" id="minder_node_15"><g transform="translate( -16 0 )" display="none" style="cursor: pointer;" id="node_expander_11"><path d="M6,0A6,6,0,1,1,-6,0A6,6,0,1,1,6,0" stroke="gray" fill="white" id="kity_path_227"></path><path stroke="gray" fill="none" id="kity_path_228"></path></g><path d="M-5,-11h97a5,5,0,0,1,5,5v12a5,5,0,0,1,-5,5h-97a5,5,0,0,1,-5,-5v-12a5,5,0,0,1,5,-5z" stroke="none" fill="transparent" id="node_outline_12"></path><g fill="black" transform="translate( 0 -1.7999999999999998 )" id="node_text_12"><text y="-6" font-size="12" dy="0" dominant-baseline="text-before-edge" text-rendering="inherit" id="kity_text_118">自动化漏洞扫描</text></g></g><g transform="matrix( 1 0 0 1 357 158 )" id="minder_node_16"><g transform="translate( -16 0 )" display="none" style="cursor: pointer;" id="node_expander_12"><path d="M6,0A6,6,0,1,1,-6,0A6,6,0,1,1,6,0" stroke="gray" fill="white" id="kity_path_230"></path><path stroke="gray" fill="none" id="kity_path_231"></path></g><path d="M-5,-11h85a5,5,0,0,1,5,5v12a5,5,0,0,1,-5,5h-85a5,5,0,0,1,-5,-5v-12a5,5,0,0,1,5,-5z" stroke="none" fill="transparent" id="node_outline_13"></path><g fill="black" transform="translate( 0 -1.7999999999999998 )" id="node_text_13"><text y="-6" font-size="12" dy="0" dominant-baseline="text-before-edge" text-rendering="inherit" id="kity_text_120">实时数据存储</text></g></g><g transform="matrix( 1 0 0 1 -216 1 )" id="minder_node_17"><g transform="translate( 79 0 )" style="cursor: pointer;" id="node_expander_32"><path d="M6,0A6,6,0,1,1,-6,0A6,6,0,1,1,6,0" stroke="gray" fill="white" id="kity_path_290"></path><path d="M-4.5,0L4.5,0" stroke="gray" fill="none" id="kity_path_291"></path></g><path stroke-width="1" d="M-17,-13h86a3,3,0,0,1,3,3v20a3,3,0,0,1,-3,3h-86a3,3,0,0,1,-3,-3v-20a3,3,0,0,1,3,-3z" stroke="rgb(115, 161, 191)" fill="rgb(238, 243, 246)" id="node_outline_33"></path><g fill="black" transform="translate( 0 -2.1 )" id="node_text_33"><text y="-7" font-size="14" dy="0" dominant-baseline="text-before-edge" text-rendering="inherit" id="kity_text_160">scripts</text></g></g><g transform="matrix( 1 0 0 1 -337 -272 )" id="minder_node_18"><g transform="translate( 67 0 )" style="cursor: pointer;" id="node_expander_21"><path d="M6,0A6,6,0,1,1,-6,0A6,6,0,1,1,6,0" stroke="gray" fill="white" id="kity_path_257"></path><path d="M-4.5,0L4.5,0" stroke="gray" fill="none" id="kity_path_258"></path></g><path stroke-width="3" d="M-5,-11h61a5,5,0,0,1,5,5v12a5,5,0,0,1,-5,5h-61a5,5,0,0,1,-5,-5v-12a5,5,0,0,1,5,-5z" stroke="none" fill="transparent" id="node_outline_22"></path><g style="cursor: default;" fill="black" transform="translate( 0 -1.7999999999999998 )" id="node_text_22"><text y="-6" font-size="12" dy="0" dominant-baseline="text-before-edge" text-rendering="inherit" id="kity_text_138">信息搜集</text></g></g><g transform="matrix( 1 0 0 1 -448 -25 )" id="minder_node_21"><g transform="translate( 67 0 )" style="cursor: pointer;" id="node_expander_20"><path d="M6,0A6,6,0,1,1,-6,0A6,6,0,1,1,6,0" stroke="gray" fill="white" id="kity_path_254"></path><path d="M-4.5,0L4.5,0" stroke="gray" fill="none" id="kity_path_255"></path></g><path d="M-5,-11h61a5,5,0,0,1,5,5v12a5,5,0,0,1,-5,5h-61a5,5,0,0,1,-5,-5v-12a5,5,0,0,1,5,-5z" stroke="none" fill="transparent" id="node_outline_21"></path><g fill="black" transform="translate( 0 -1.7999999999999998 )" id="node_text_21"><text y="-6" font-size="12" dy="0" dominant-baseline="text-before-edge" text-rendering="inherit" id="kity_text_136">信息刺探</text></g></g><g transform="matrix( 1 0 0 1 -583 -103 )" id="minder_node_22"><g transform="translate( 91 0 )" display="none" style="cursor: pointer;" id="node_expander_16"><path d="M6,0A6,6,0,1,1,-6,0A6,6,0,1,1,6,0" stroke="gray" fill="white" id="kity_path_242"></path><path stroke="gray" fill="none" id="kity_path_243"></path></g><path d="M-5,-11h85a5,5,0,0,1,5,5v12a5,5,0,0,1,-5,5h-85a5,5,0,0,1,-5,-5v-12a5,5,0,0,1,5,-5z" stroke="none" fill="transparent" id="node_outline_17"></path><g fill="black" transform="translate( 0 -1.7999999999999998 )" id="node_text_17"><text y="-6" font-size="12" dy="0" dominant-baseline="text-before-edge" text-rendering="inherit" id="kity_text_128">同服务器站点</text></g></g><g transform="matrix( 1 0 0 1 -571 -51 )" id="minder_node_23"><g transform="translate( 79 0 )" display="none" style="cursor: pointer;" id="node_expander_17"><path d="M6,0A6,6,0,1,1,-6,0A6,6,0,1,1,6,0" stroke="gray" fill="white" id="kity_path_245"></path><path stroke="gray" fill="none" id="kity_path_246"></path></g><path d="M-5,-11h73a5,5,0,0,1,5,5v12a5,5,0,0,1,-5,5h-73a5,5,0,0,1,-5,-5v-12a5,5,0,0,1,5,-5z" stroke="none" fill="transparent" id="node_outline_18"></path><g fill="black" transform="translate( 0 -1.7999999999999998 )" id="node_text_18"><text y="-6" font-size="12" dy="0" dominant-baseline="text-before-edge" text-rendering="inherit" id="kity_text_130">同组织站点</text></g></g><g transform="matrix( 1 0 0 1 -571 1 )" id="minder_node_24"><g transform="translate( 79 0 )" display="none" style="cursor: pointer;" id="node_expander_18"><path d="M6,0A6,6,0,1,1,-6,0A6,6,0,1,1,6,0" stroke="gray" fill="white" id="kity_path_248"></path><path stroke="gray" fill="none" id="kity_path_249"></path></g><path d="M-5,-11h73a5,5,0,0,1,5,5v12a5,5,0,0,1,-5,5h-73a5,5,0,0,1,-5,-5v-12a5,5,0,0,1,5,-5z" stroke="none" fill="transparent" id="node_outline_19"></path><g fill="black" transform="translate( 0 -1.7999999999999998 )" id="node_text_19"><text y="-6" font-size="12" dy="0" dominant-baseline="text-before-edge" text-rendering="inherit" id="kity_text_132">同源码站点</text></g></g><g transform="matrix( 1 0 0 1 -565 53 )" id="minder_node_25"><g transform="translate( 73 0 )" display="none" style="cursor: pointer;" id="node_expander_19"><path d="M6,0A6,6,0,1,1,-6,0A6,6,0,1,1,6,0" stroke="gray" fill="white" id="kity_path_251"></path><path stroke="gray" fill="none" id="kity_path_252"></path></g><path d="M-5,-11h67a5,5,0,0,1,5,5v12a5,5,0,0,1,-5,5h-67a5,5,0,0,1,-5,-5v-12a5,5,0,0,1,5,-5z" stroke="none" fill="transparent" id="node_outline_20"></path><g fill="black" transform="translate( 0 -1.7999999999999998 )" id="node_text_20"><text y="-6" font-size="12" dy="0" dominant-baseline="text-before-edge" text-rendering="inherit" id="kity_text_134">同C段站点</text></g></g><g transform="matrix( 1 0 0 1 -355 105 )" id="minder_node_26"><g transform="translate( 85 0 )" display="none" style="cursor: pointer;" id="node_expander_22"><path d="M6,0A6,6,0,1,1,-6,0A6,6,0,1,1,6,0" stroke="gray" fill="white" id="kity_path_260"></path><path stroke="gray" fill="none" id="kity_path_261"></path></g><path d="M-5,-11h79a5,5,0,0,1,5,5v12a5,5,0,0,1,-5,5h-79a5,5,0,0,1,-5,-5v-12a5,5,0,0,1,5,-5z" stroke="none" fill="transparent" id="node_outline_23"></path><g fill="black" transform="translate( 0 -1.7999999999999998 )" id="node_text_23"><text y="-6" font-size="12" dy="0" dominant-baseline="text-before-edge" text-rendering="inherit" id="kity_text_140">已知漏洞PoC</text></g></g><g transform="matrix( 1 0 0 1 -337 274 )" id="minder_node_27"><g transform="translate( 67 0 )" style="cursor: pointer;" id="node_expander_31"><path d="M6,0A6,6,0,1,1,-6,0A6,6,0,1,1,6,0" stroke="gray" fill="white" id="kity_path_287"></path><path d="M-4.5,0L4.5,0" stroke="gray" fill="none" id="kity_path_288"></path></g><path d="M-5,-11h61a5,5,0,0,1,5,5v12a5,5,0,0,1,-5,5h-61a5,5,0,0,1,-5,-5v-12a5,5,0,0,1,5,-5z" stroke="none" fill="transparent" id="node_outline_32"></path><g fill="black" transform="translate( 0 -1.7999999999999998 )" id="node_text_32"><text y="-6" font-size="12" dy="0" dominant-baseline="text-before-edge" text-rendering="inherit" id="kity_text_158">漏洞扫描</text></g></g><g transform="matrix( 1 0 0 1 -442 157 )" id="minder_node_28"><g transform="translate( 61 0 )" display="none" style="cursor: pointer;" id="node_expander_23"><path d="M6,0A6,6,0,1,1,-6,0A6,6,0,1,1,6,0" stroke="gray" fill="white" id="kity_path_263"></path><path stroke="gray" fill="none" id="kity_path_264"></path></g><path d="M-5,-11h55a5,5,0,0,1,5,5v12a5,5,0,0,1,-5,5h-55a5,5,0,0,1,-5,-5v-12a5,5,0,0,1,5,-5z" stroke="none" fill="transparent" id="node_outline_24"></path><g fill="black" transform="translate( 0 -1.7999999999999998 )" id="node_text_24"><text y="-6" font-size="12" dy="0" dominant-baseline="text-before-edge" text-rendering="inherit" id="kity_text_142">SQL注入</text></g></g><g transform="matrix( 1 0 0 1 -418 209 )" id="minder_node_29"><g transform="translate( 37 0 )" display="none" style="cursor: pointer;" id="node_expander_24"><path d="M6,0A6,6,0,1,1,-6,0A6,6,0,1,1,6,0" stroke="gray" fill="white" id="kity_path_266"></path><path stroke="gray" fill="none" id="kity_path_267"></path></g><path d="M-5,-11h31a5,5,0,0,1,5,5v12a5,5,0,0,1,-5,5h-31a5,5,0,0,1,-5,-5v-12a5,5,0,0,1,5,-5z" stroke="none" fill="transparent" id="node_outline_25"></path><g fill="black" transform="translate( 0 -1.7999999999999998 )" id="node_text_25"><text y="-6" font-size="12" dy="0" dominant-baseline="text-before-edge" text-rendering="inherit" id="kity_text_144">XSS</text></g></g><g transform="matrix( 1 0 0 1 -472 287 )" id="minder_node_30"><g transform="translate( 91 0 )" style="cursor: pointer;" id="node_expander_27"><path d="M6,0A6,6,0,1,1,-6,0A6,6,0,1,1,6,0" stroke="gray" fill="white" id="kity_path_275"></path><path d="M-4.5,0L4.5,0" stroke="gray" fill="none" id="kity_path_276"></path></g><path d="M-5,-11h85a5,5,0,0,1,5,5v12a5,5,0,0,1,-5,5h-85a5,5,0,0,1,-5,-5v-12a5,5,0,0,1,5,-5z" stroke="none" fill="transparent" id="node_outline_28"></path><g fill="black" transform="translate( 0 -1.7999999999999998 )" id="node_text_28"><text y="-6" font-size="12" dy="0" dominant-baseline="text-before-edge" text-rendering="inherit" id="kity_text_150">访问控制缺失</text></g></g><g transform="matrix( 1 0 0 1 -583 261 )" id="minder_node_31"><g transform="translate( 67 0 )" display="none" style="cursor: pointer;" id="node_expander_25"><path d="M6,0A6,6,0,1,1,-6,0A6,6,0,1,1,6,0" stroke="gray" fill="white" id="kity_path_269"></path><path stroke="gray" fill="none" id="kity_path_270"></path></g><path d="M-5,-11h61a5,5,0,0,1,5,5v12a5,5,0,0,1,-5,5h-61a5,5,0,0,1,-5,-5v-12a5,5,0,0,1,5,-5z" stroke="none" fill="transparent" id="node_outline_26"></path><g fill="black" transform="translate( 0 -1.7999999999999998 )" id="node_text_26"><text y="-6" font-size="12" dy="0" dominant-baseline="text-before-edge" text-rendering="inherit" id="kity_text_146">后台路径</text></g></g><g transform="matrix( 1 0 0 1 -583 313 )" id="minder_node_32"><g transform="translate( 67 0 )" display="none" style="cursor: pointer;" id="node_expander_26"><path d="M6,0A6,6,0,1,1,-6,0A6,6,0,1,1,6,0" stroke="gray" fill="white" id="kity_path_272"></path><path stroke="gray" fill="none" id="kity_path_273"></path></g><path d="M-5,-11h61a5,5,0,0,1,5,5v12a5,5,0,0,1,-5,5h-61a5,5,0,0,1,-5,-5v-12a5,5,0,0,1,5,-5z" stroke="none" fill="transparent" id="node_outline_27"></path><g fill="black" transform="translate( 0 -1.7999999999999998 )" id="node_text_27"><text y="-6" font-size="12" dy="0" dominant-baseline="text-before-edge" text-rendering="inherit" id="kity_text_148">功能页面</text></g></g><g transform="matrix( 1 0 0 1 -520 391 )" id="minder_node_33"><g transform="translate( 139 0 )" style="cursor: pointer;" id="node_expander_30"><path d="M6,0A6,6,0,1,1,-6,0A6,6,0,1,1,6,0" stroke="gray" fill="white" id="kity_path_284"></path><path d="M-4.5,0L4.5,0" stroke="gray" fill="none" id="kity_path_285"></path></g><path d="M-5,-11h133a5,5,0,0,1,5,5v12a5,5,0,0,1,-5,5h-133a5,5,0,0,1,-5,-5v-12a5,5,0,0,1,5,-5z" stroke="none" fill="transparent" id="node_outline_31"></path><g fill="black" transform="translate( 0 -1.7999999999999998 )" id="node_text_31"><text y="-6" font-size="12" dy="0" dominant-baseline="text-before-edge" text-rendering="inherit" id="kity_text_156">不安全的直接对象引用</text></g></g><g transform="matrix( 1 0 0 1 -655 365 )" id="minder_node_34"><g transform="translate( 91 0 )" display="none" style="cursor: pointer;" id="node_expander_28"><path d="M6,0A6,6,0,1,1,-6,0A6,6,0,1,1,6,0" stroke="gray" fill="white" id="kity_path_278"></path><path stroke="gray" fill="none" id="kity_path_279"></path></g><path d="M-5,-11h85a5,5,0,0,1,5,5v12a5,5,0,0,1,-5,5h-85a5,5,0,0,1,-5,-5v-12a5,5,0,0,1,5,-5z" stroke="none" fill="transparent" id="node_outline_29"></path><g fill="black" transform="translate( 0 -1.7999999999999998 )" id="node_text_29"><text y="-6" font-size="12" dy="0" dominant-baseline="text-before-edge" text-rendering="inherit" id="kity_text_152">任意文件下载</text></g></g><g transform="matrix( 1 0 0 1 -631 417 )" id="minder_node_35"><g transform="translate( 67 0 )" display="none" style="cursor: pointer;" id="node_expander_29"><path d="M6,0A6,6,0,1,1,-6,0A6,6,0,1,1,6,0" stroke="gray" fill="white" id="kity_path_281"></path><path stroke="gray" fill="none" id="kity_path_282"></path></g><path d="M-5,-11h61a5,5,0,0,1,5,5v12a5,5,0,0,1,-5,5h-61a5,5,0,0,1,-5,-5v-12a5,5,0,0,1,5,-5z" stroke="none" fill="transparent" id="node_outline_30"></path><g fill="black" transform="translate( 0 -1.7999999999999998 )" id="node_text_30"><text y="-6" font-size="12" dy="0" dominant-baseline="text-before-edge" text-rendering="inherit" id="kity_text_154">目录遍历</text></g></g><g transform="matrix( 1 0 0 1 -448 -285 )" id="minder_node_271"><g transform="translate( 67 0 )" style="cursor: pointer;" id="node_expander_34"><path d="M6,0A6,6,0,1,1,-6,0A6,6,0,1,1,6,0" stroke="gray" fill="white" id="kity_path_540"></path><path d="M-4.5,0L4.5,0" stroke="gray" fill="none" id="kity_path_541"></path></g><path stroke-width="3" d="M-5,-11h61a5,5,0,0,1,5,5v12a5,5,0,0,1,-5,5h-61a5,5,0,0,1,-5,-5v-12a5,5,0,0,1,5,-5z" stroke="none" fill="transparent" id="node_outline_35"></path><g style="cursor: default;" fill="black" transform="translate( 0 -1.7999999999999998 )" id="node_text_35"><text y="-6" font-size="12" dy="0" dominant-baseline="text-before-edge" text-rendering="inherit" id="kity_text_537">指纹识别</text></g></g><g transform="matrix( 1 0 0 1 -547 -389 )" id="minder_node_447"><g transform="translate( 55 0 )" style="cursor: pointer;" id="node_expander_35"><path d="M6,0A6,6,0,1,1,-6,0A6,6,0,1,1,6,0" stroke="gray" fill="white" id="kity_path_723"></path><path d="M-4.5,0L4.5,0" stroke="gray" fill="none" id="kity_path_724"></path></g><path stroke-width="3" d="M-5,-11h49a5,5,0,0,1,5,5v12a5,5,0,0,1,-5,5h-49a5,5,0,0,1,-5,-5v-12a5,5,0,0,1,5,-5z" stroke="none" fill="transparent" id="node_outline_36"></path><g style="cursor: default;" fill="black" transform="translate( 0 -1.7999999999999998 )" id="node_text_36"><text y="-6" font-size="12" dy="0" dominant-baseline="text-before-edge" text-rendering="inherit" id="kity_text_720">中间件</text></g></g><g transform="matrix( 1 0 0 1 -559 -285 )" id="minder_node_556"><g transform="translate( 67 0 )" style="cursor: pointer;" id="node_expander_36"><path d="M6,0A6,6,0,1,1,-6,0A6,6,0,1,1,6,0" stroke="gray" fill="white" id="kity_path_839"></path><path d="M-4.5,0L4.5,0" stroke="gray" fill="none" id="kity_path_840"></path></g><path stroke-width="3" d="M-5,-11h61a5,5,0,0,1,5,5v12a5,5,0,0,1,-5,5h-61a5,5,0,0,1,-5,-5v-12a5,5,0,0,1,5,-5z" stroke="none" fill="transparent" id="node_outline_37"></path><g style="cursor: default;" fill="black" transform="translate( 0 -1.7999999999999998 )" id="node_text_37"><text y="-6" font-size="12" dy="0" dominant-baseline="text-before-edge" text-rendering="inherit" id="kity_text_836">开发框架</text></g></g><g transform="matrix( 1 0 0 1 -559 -181 )" id="minder_node_779"><g transform="translate( 67 0 )" style="cursor: pointer;" id="node_expander_37"><path d="M6,0A6,6,0,1,1,-6,0A6,6,0,1,1,6,0" stroke="gray" fill="white" id="kity_path_1069"></path><path d="M-4.5,0L4.5,0" stroke="gray" fill="none" id="kity_path_1070"></path></g><path stroke-width="3" d="M-5,-11h61a5,5,0,0,1,5,5v12a5,5,0,0,1,-5,5h-61a5,5,0,0,1,-5,-5v-12a5,5,0,0,1,5,-5z" stroke="none" fill="transparent" id="node_outline_38"></path><g style="cursor: default;" fill="black" transform="translate( 0 -1.7999999999999998 )" id="node_text_38"><text y="-6" font-size="12" dy="0" dominant-baseline="text-before-edge" text-rendering="inherit" id="kity_text_1066">开源系统</text></g></g><g transform="matrix( 1 0 0 1 -670 -415 )" id="minder_node_894"><g display="none" transform="translate( 79 0 )" style="cursor: pointer;" id="node_expander_38"><path d="M6,0A6,6,0,1,1,-6,0A6,6,0,1,1,6,0" stroke="gray" fill="white" id="kity_path_1191"></path><path stroke="gray" fill="none" id="kity_path_1192"></path></g><path stroke-width="3" d="M-5,-11h73a5,5,0,0,1,5,5v12a5,5,0,0,1,-5,5h-73a5,5,0,0,1,-5,-5v-12a5,5,0,0,1,5,-5z" stroke="none" fill="transparent" id="node_outline_39"></path><g style="cursor: default;" fill="black" transform="translate( 0 -1.7999999999999998 )" id="node_text_39"><text y="-6" font-size="12" dy="0" dominant-baseline="text-before-edge" text-rendering="inherit" id="kity_text_1188">中间件类型</text></g></g><g transform="matrix( 1 0 0 1 -706 -363 )" id="minder_node_1012"><g display="none" transform="translate( 115 0 )" style="cursor: pointer;" id="node_expander_39"><path d="M6,0A6,6,0,1,1,-6,0A6,6,0,1,1,6,0" stroke="gray" fill="white" id="kity_path_1316"></path><path stroke="gray" fill="none" id="kity_path_1317"></path></g><path stroke-width="3" d="M-5,-11h109a5,5,0,0,1,5,5v12a5,5,0,0,1,-5,5h-109a5,5,0,0,1,-5,-5v-12a5,5,0,0,1,5,-5z" stroke="none" fill="transparent" id="node_outline_40"></path><g style="cursor: default;" fill="black" transform="translate( 0 -1.7999999999999998 )" id="node_text_40"><text y="-6" font-size="12" dy="0" dominant-baseline="text-before-edge" text-rendering="inherit" id="kity_text_1313">中间件端口及后台</text></g></g><g transform="matrix( 1 0 0 1 -670 -311 )" id="minder_node_1133"><g display="none" transform="translate( 67 0 )" style="cursor: pointer;" id="node_expander_40"><path d="M6,0A6,6,0,1,1,-6,0A6,6,0,1,1,6,0" stroke="gray" fill="white" id="kity_path_1444"></path><path stroke="gray" fill="none" id="kity_path_1445"></path></g><path stroke-width="3" d="M-5,-11h61a5,5,0,0,1,5,5v12a5,5,0,0,1,-5,5h-61a5,5,0,0,1,-5,-5v-12a5,5,0,0,1,5,-5z" stroke="none" fill="transparent" id="node_outline_41"></path><g style="cursor: default;" fill="black" transform="translate( 0 -1.7999999999999998 )" id="node_text_41"><text y="-6" font-size="12" dy="0" dominant-baseline="text-before-edge" text-rendering="inherit" id="kity_text_1441">thinkPHP</text></g></g><g transform="matrix( 1 0 0 1 -712 -259 )" id="minder_node_1257"><g display="none" transform="translate( 109 0 )" style="cursor: pointer;" id="node_expander_41"><path d="M6,0A6,6,0,1,1,-6,0A6,6,0,1,1,6,0" stroke="gray" fill="white" id="kity_path_1575"></path><path stroke="gray" fill="none" id="kity_path_1576"></path></g><path stroke-width="3" d="M-5,-11h103a5,5,0,0,1,5,5v12a5,5,0,0,1,-5,5h-103a5,5,0,0,1,-5,-5v-12a5,5,0,0,1,5,-5z" stroke="none" fill="transparent" id="node_outline_42"></path><g style="cursor: default;" fill="black" transform="translate( 0 -1.7999999999999998 )" id="node_text_42"><text y="-6" font-size="12" dy="0" dominant-baseline="text-before-edge" text-rendering="inherit" id="kity_text_1572">struts/strusts2</text></g></g><g transform="matrix( 1 0 0 1 -664 -207 )" id="minder_node_1384"><g display="none" transform="translate( 61 0 )" style="cursor: pointer;" id="node_expander_42"><path d="M6,0A6,6,0,1,1,-6,0A6,6,0,1,1,6,0" stroke="gray" fill="white" id="kity_path_1709"></path><path stroke="gray" fill="none" id="kity_path_1710"></path></g><path stroke-width="3" d="M-5,-11h55a5,5,0,0,1,5,5v12a5,5,0,0,1,-5,5h-55a5,5,0,0,1,-5,-5v-12a5,5,0,0,1,5,-5z" stroke="none" fill="transparent" id="node_outline_43"></path><g style="cursor: default;" fill="black" transform="translate( 0 -1.7999999999999998 )" id="node_text_43"><text y="-6" font-size="12" dy="0" dominant-baseline="text-before-edge" text-rendering="inherit" id="kity_text_1706">dedecms</text></g></g><g transform="matrix( 1 0 0 1 -658 -155 )" id="minder_node_1514"><g display="none" transform="translate( 55 0 )" style="cursor: pointer;" id="node_expander_43"><path d="M6,0A6,6,0,1,1,-6,0A6,6,0,1,1,6,0" stroke="gray" fill="white" id="kity_path_1846"></path><path stroke="gray" fill="none" id="kity_path_1847"></path></g><path stroke-width="3" d="M-5,-11h49a5,5,0,0,1,5,5v12a5,5,0,0,1,-5,5h-49a5,5,0,0,1,-5,-5v-12a5,5,0,0,1,5,-5z" stroke="none" fill="transparent" id="node_outline_44"></path><g style="cursor: default;" fill="black" transform="translate( 0 -1.7999999999999998 )" id="node_text_44"><text y="-6" font-size="12" dy="0" dominant-baseline="text-before-edge" text-rendering="inherit" id="kity_text_1843">phpcms</text></g></g><g transform="matrix( 1 0 0 1 -448 -519 )" id="minder_node_19"><g transform="translate( 67 0 )" style="cursor: pointer;" id="node_expander_15"><path d="M6,0A6,6,0,1,1,-6,0A6,6,0,1,1,6,0" stroke="gray" fill="white" id="kity_path_239"></path><path d="M-4.5,0L4.5,0" stroke="gray" fill="none" id="kity_path_240"></path></g><path stroke-width="3" d="M-5,-11h61a5,5,0,0,1,5,5v12a5,5,0,0,1,-5,5h-61a5,5,0,0,1,-5,-5v-12a5,5,0,0,1,5,-5z" stroke="none" fill="transparent" id="node_outline_16"></path><g style="cursor: default;" fill="black" transform="translate( 0 -1.7999999999999998 )" id="node_text_16"><text y="-6" font-size="12" dy="0" dominant-baseline="text-before-edge" text-rendering="inherit" id="kity_text_126">信息泄露</text></g></g><g transform="matrix( 1 0 0 1 -571 -571 )" id="minder_node_20"><g display="none" transform="translate( 79 0 )" style="cursor: pointer;" id="node_expander_14"><path d="M6,0A6,6,0,1,1,-6,0A6,6,0,1,1,6,0" stroke="gray" fill="white" id="kity_path_236"></path><path stroke="gray" fill="none" id="kity_path_237"></path></g><path stroke-width="3" d="M-5,-11h73a5,5,0,0,1,5,5v12a5,5,0,0,1,-5,5h-73a5,5,0,0,1,-5,-5v-12a5,5,0,0,1,5,-5z" stroke="none" fill="transparent" id="node_outline_15"></path><g style="cursor: default;" fill="black" transform="translate( 0 -1.7999999999999998 )" id="node_text_15"><text y="-6" font-size="12" dy="0" dominant-baseline="text-before-edge" text-rendering="inherit" id="kity_text_124">robots.txt</text></g></g><g transform="matrix( 1 0 0 1 -565 -519 )" id="minder_node_168"><g display="none" transform="translate( 73 0 )" style="cursor: pointer;" id="node_expander_33"><path d="M6,0A6,6,0,1,1,-6,0A6,6,0,1,1,6,0" stroke="gray" fill="white" id="kity_path_430"></path><path stroke="gray" fill="none" id="kity_path_431"></path></g><path stroke-width="3" d="M-5,-11h67a5,5,0,0,1,5,5v12a5,5,0,0,1,-5,5h-67a5,5,0,0,1,-5,-5v-12a5,5,0,0,1,5,-5z" stroke="none" fill="transparent" id="node_outline_34"></path><g style="cursor: default;" fill="black" transform="translate( 0 -1.7999999999999998 )" id="node_text_34"><text y="-6" font-size="12" dy="0" dominant-baseline="text-before-edge" text-rendering="inherit" id="kity_text_427">phpinfo()</text></g></g><g transform="matrix( 1 0 0 1 -547 -467 )" id="minder_node_1779"><g display="none" transform="translate( 55 0 )" style="cursor: pointer;" id="node_expander_44"><path d="M6,0A6,6,0,1,1,-6,0A6,6,0,1,1,6,0" stroke="gray" fill="white" id="kity_path_2118"></path><path stroke="gray" fill="none" id="kity_path_2119"></path></g><path stroke-width="3" d="M-5,-11h49a5,5,0,0,1,5,5v12a5,5,0,0,1,-5,5h-49a5,5,0,0,1,-5,-5v-12a5,5,0,0,1,5,-5z" stroke="none" fill="transparent" id="node_outline_45"></path><g style="cursor: default;" fill="black" transform="translate( 0 -1.7999999999999998 )" id="node_text_45"><text y="-6" font-size="12" dy="0" dominant-baseline="text-before-edge" text-rendering="inherit" id="kity_text_2115">列目录</text></g><path d="M36,-5h2v14h-2v-14z" transform="translate( -0.5 -1.5 )" opacity="1" style="cursor: text; display: none;" stroke="none" fill="rgb(0, 61, 102)" id="_kity_selection"></path></g></g></g></svg>